<?xml version="1.0" encoding="utf-8"?>
<svg xmlns="http://www.w3.org/2000/svg" xmlns:xlink="http://www.w3.org/1999/xlink">
    <symbol fill="none" viewBox="0 0 24 24" id="svg-main" xmlns="http://www.w3.org/2000/svg">
        <path d="M7.843 3.802C9.872 2.601 10.886 2 12 2c1.114 0 2.128.6 4.157 1.802l.686.406c2.029 1.202 3.043 1.803 3.6 2.792.557.99.557 2.19.557 4.594v.812c0 2.403 0 3.605-.557 4.594-.557.99-1.571 1.59-3.6 2.791l-.686.407C14.128 21.399 13.114 22 12 22c-1.114 0-2.128-.6-4.157-1.802l-.686-.407c-2.029-1.2-3.043-1.802-3.6-2.791C3 16.01 3 14.81 3 12.406v-.812C3 9.19 3 7.989 3.557 7c.557-.99 1.571-1.59 3.6-2.792l.686-.406Z" stroke="#4891FF" stroke-width="1.5"/>
        <circle opacity=".5" cx="12" cy="12" r="3" stroke="#4891FF" stroke-width="1.5"/>
    </symbol><symbol fill="none" viewBox="0 0 24 24" id="svg-tradeIn" xmlns="http://www.w3.org/2000/svg">
    <path d="M13 2.8c3.114.01 4.765.108 5.828 1.172C20 5.143 20 7.029 20 10.8v4c0 3.771 0 5.657-1.172 6.828C17.657 22.8 15.771 22.8 12 22.8c-3.771 0-5.657 0-6.828-1.172C4 20.457 4 18.571 4 14.8v-3" stroke="#4891FF" stroke-width="1.5" stroke-linecap="round"/>
    <path opacity=".5" d="M2.73 4.8h-.75.75Zm0 .8-.554.506a.75.75 0 0 0 1.108 0L2.73 5.6Zm1.284-.294a.75.75 0 1 0-1.108-1.012l1.108 1.012Zm-1.46-1.012a.75.75 0 0 0-1.108 1.012l1.108-1.012ZM10.27 4l.554-.506a.75.75 0 0 0-1.108 0L10.27 4Zm-1.284.294a.75.75 0 0 0 1.108 1.012L8.986 4.294Zm1.46 1.012a.75.75 0 0 0 1.108-1.012l-1.108 1.012Zm-5.87 1.8A.75.75 0 1 0 3.461 8.11l1.115-1.003ZM8.54 2.631a.75.75 0 0 0 1.17-.939l-1.17.939ZM6.38.05c-2.494 0-4.4 2.193-4.4 4.75h1.5c0-1.86 1.36-3.25 2.9-3.25V.05Zm-4.4 4.75v.8h1.5v-.8h-1.5Zm1.303 1.306.73-.8-1.108-1.012-.73.8 1.108 1.012Zm0-1.012-.73-.8-1.108 1.012.73.8 1.108-1.012ZM6.62 9.55c2.494 0 4.4-2.193 4.4-4.75h-1.5c0 1.86-1.36 3.25-2.9 3.25v1.5Zm4.4-4.75V4h-1.5v.8h1.5ZM9.717 3.494l-.73.8 1.108 1.012.73-.8-1.108-1.012Zm0 1.012.73.8 1.108-1.012-.73-.8-1.108 1.012ZM3.46 8.109c.79.879 1.908 1.441 3.158 1.441v-1.5c-.785 0-1.509-.35-2.043-.944L3.461 8.11ZM9.71 1.692C8.914.7 7.726.05 6.381.05v1.5c.843 0 1.617.404 2.159 1.08l1.17-.938Z" fill="#4891FF"/>
    <path opacity=".5" d="M15 19.8H9" stroke="#4891FF" stroke-width="1.5" stroke-linecap="round"/>
</symbol><symbol fill="none" viewBox="0 0 24 24" id="svg-manHello" xmlns="http://www.w3.org/2000/svg">
    <path d="m20 21.5-.65-5.52C19.15 14.28 17.71 13 16 13H8c-3 0-4.933-2.731-5.618-5.472L2 6" stroke="#4891FF" stroke-width="1.5" stroke-linecap="round" stroke-linejoin="round"/>
    <path opacity=".5" d="M8 13v5c0 1.886 0 2.828.586 3.414C9.172 22 10.114 22 12 22c1.886 0 2.828 0 3.414-.586C16 20.828 16 19.886 16 18v-5" stroke="#4891FF" stroke-width="1.5" stroke-linecap="round"/>
    <circle opacity=".9" cx="12" cy="6" r="4" stroke="#4891FF" stroke-width="1.5"/>
</symbol><symbol fill="none" viewBox="0 0 24 24" id="svg-guard" xmlns="http://www.w3.org/2000/svg">
    <path d="M3 10.417c0-3.198 0-4.797.378-5.335.377-.537 1.88-1.052 4.887-2.081l.573-.196C10.405 2.268 11.188 2 12 2c.811 0 1.595.268 3.162.805l.573.196c3.007 1.029 4.51 1.544 4.887 2.081C21 5.62 21 7.22 21 10.417v1.574c0 5.638-4.239 8.375-6.899 9.536C13.38 21.842 13.02 22 12 22c-1.02 0-1.38-.158-2.101-.473C7.239 20.365 3 17.63 3 11.991v-1.574Z" stroke="#4891FF" stroke-width="1.5"/>
    <path opacity=".5" d="m9.5 12.4 1.429 1.6 3.571-4" stroke="#4891FF" stroke-width="1.5" stroke-linecap="round" stroke-linejoin="round"/>
</symbol><symbol fill="none" viewBox="0 0 24 24" id="delivery" xmlns="http://www.w3.org/2000/svg">
    <path d="M7.506 15.265a.75.75 0 0 0 1.446-.4l-1.446.4Zm-1.43-7.99.724-.2-.723.2ZM4.705 5.92l-.2.723.2-.723ZM3.2 4.725a.75.75 0 1 0-.402 1.445l.402-1.445Zm16.988 11a.75.75 0 0 0-.378-1.451l.378 1.452Zm-9.991 1.834c.31 1.12-.37 2.303-1.574 2.616L9 21.627c1.977-.514 3.185-2.503 2.643-4.467l-1.446.399Zm-1.574 2.616c-1.212.315-2.428-.389-2.74-1.519l-1.446.4c.54 1.955 2.594 3.082 4.563 2.57l-.377-1.451Zm-2.74-1.519c-.31-1.12.37-2.303 1.574-2.616L7.08 14.59c-1.977.513-3.186 2.502-2.643 4.467l1.446-.4Zm1.574-2.616c1.212-.314 2.428.389 2.74 1.519l1.446-.4c-.54-1.954-2.594-3.082-4.563-2.57l.377 1.451Zm1.494-1.175L6.8 7.075l-1.446.4 2.152 7.79 1.446-.4ZM4.904 5.197l-1.703-.472-.402 1.445 1.704.473.401-1.446ZM6.8 7.075a2.707 2.707 0 0 0-1.896-1.878l-.4 1.446c.425.118.742.44.85.831l1.446-.4Zm4.31 11.01 9.079-2.36-.378-1.451-9.079 2.36.377 1.451Z" fill="#4891FF"/>
    <path opacity=".5" d="M9.565 8.73c-.485-1.755-.727-2.633-.315-3.324.411-.692 1.316-.927 3.126-1.398l1.92-.498c1.81-.47 2.715-.706 3.428-.307.713.4.956 1.277 1.44 3.033l.515 1.862c.485 1.755.728 2.633.316 3.325-.412.691-1.317.927-3.127 1.397l-1.92.499c-1.81.47-2.715.705-3.428.306-.713-.4-.955-1.277-1.44-3.032L9.565 8.73Z" stroke="#4891FF" stroke-width="1.5"/>
</symbol><symbol fill="none" viewBox="0 0 24 24" id="svg-handPay" xmlns="http://www.w3.org/2000/svg">
    <path d="M17.414 10.414C18 9.828 18 8.886 18 7c0-1.886 0-2.828-.586-3.414m0 6.828C16.828 11 15.886 11 14 11h-4c-1.886 0-2.828 0-3.414-.586m10.828 0Zm0-6.828C16.828 3 15.886 3 14 3h-4c-1.886 0-2.828 0-3.414.586m10.828 0Zm-10.828 0C6 4.172 6 5.114 6 7c0 1.886 0 2.828.586 3.414m0-6.828Zm0 6.828Z" stroke="#4891FF" stroke-width="1.5"/>
    <path opacity=".5" d="M13 7a1 1 0 1 1-2 0 1 1 0 0 1 2 0Z" stroke="#4891FF" stroke-width="1.5"/>
    <path opacity=".5" d="M18 6a3 3 0 0 1-3-3M18 8a3 3 0 0 0-3 3M6 6a3 3 0 0 0 3-3M6 8a3 3 0 0 1 3 3M4 21.388h2.26c1.01 0 2.033.106 3.016.308 1.74.359 3.573.402 5.33.118.868-.14 1.72-.355 2.492-.727.696-.337 1.549-.81 2.122-1.341.572-.53 1.168-1.397 1.59-2.075.364-.582.188-1.295-.386-1.728a1.887 1.887 0 0 0-2.22 0l-1.807 1.365c-.7.53-1.465 1.017-2.376 1.162-.11.017-.225.033-.345.047m0 0a8.176 8.176 0 0 1-.11.012m.11-.012a.998.998 0 0 0 .427-.24 1.492 1.492 0 0 0 .126-2.134 1.9 1.9 0 0 0-.45-.367c-2.797-1.669-7.15-.398-9.779 1.467m9.676 1.274a.524.524 0 0 1-.11.012m0 0a9.274 9.274 0 0 1-1.814.004" stroke="#4891FF" stroke-width="1.5" stroke-linecap="round"/>
</symbol><symbol fill="none" viewBox="0 0 24 24" id="svg-hot" xmlns="http://www.w3.org/2000/svg">
    <path d="M20 13.111C20 20.222 13.956 22 10.933 22 8.29 22 3 20.222 3 13.111c0-2.782 1.461-4.65 2.86-5.716.778-.594 1.77-.003 1.87.971l.086.838c.105 1.02 1.033 1.857 1.893 1.298C11.394 9.407 12 6.775 12 5.333V5.01c0-1.43 1.444-2.35 2.602-1.512C17.165 5.35 20 8.584 20 13.11Z" stroke="#4891FF" stroke-width="1.5"/>
    <path opacity=".5" d="M8 18.445C8 21.289 10.489 22 11.733 22c1.09 0 3.267-.711 3.267-3.555 0-1.102-.59-1.845-1.16-2.274-.398-.299-.957-.03-1.094.449-.178.624-.823 1.016-1.152.456-.3-.512-.3-1.28-.3-1.743 0-.636-.64-1.048-1.155-.674C9.106 15.409 8 16.68 8 18.445Z" stroke="#4891FF" stroke-width="1.5"/>
</symbol><symbol fill="none" viewBox="0 0 24 24" id="svg-like-hand" xmlns="http://www.w3.org/2000/svg">
    <path d="m20.975 12.185-.74-.128.74.128Zm-.706 4.08-.739-.128.74.128ZM6.938 20.477l-.748.065.748-.065Zm-.813-9.393.748-.064-.748.064Zm7.87-5.863.74.122-.74-.122Zm-.663 4.045.74.121-.74-.121Zm-6.634.411-.49-.568.49.568Zm1.439-1.24.49.569-.49-.568Zm2.38-3.653-.725-.189.726.189Zm.476-1.834.726.188-.726-.188Zm1.674-.886-.229.714.23-.714Zm.145.047.23-.714-.23.714Zm-2.95 4.352.661.353-.661-.353Zm4.042-3.215-.726.188.726-.188Zm-2.23-1.116-.326-.675.326.675Zm8.562 9.925-.706 4.08 1.478.256.706-4.08-1.478-.256Zm-6.991 9.193H8.596v1.5h4.649v-1.5Zm-5.56-.837-.812-9.393-1.495.129.812 9.393 1.495-.13Zm11.845-4.276c-.507 2.93-3.149 5.113-6.285 5.113v1.5c3.826 0 7.126-2.669 7.763-6.357l-1.478-.256ZM13.255 5.1l-.663 4.045 1.48.242.663-4.044-1.48-.243Zm-6.068 5.146 1.44-1.24-.98-1.136-1.439 1.24.98 1.136Zm4.057-5.274.476-1.834-1.453-.376-.475 1.833 1.452.377Zm1.194-2.194.145.047.459-1.428-.145-.047-.459 1.428Zm-1.915 4.038a8.379 8.379 0 0 0 .72-1.844l-1.451-.377A6.879 6.879 0 0 1 9.2 6.11l1.323.707Zm2.06-3.991a.885.885 0 0 1 .595.61l1.452-.376a2.385 2.385 0 0 0-1.588-1.662l-.46 1.428Zm-.864.313a.514.514 0 0 1 .28-.33l-.65-1.351c-.533.256-.932.73-1.082 1.305l1.453.376Zm.28-.33a.596.596 0 0 1 .439-.03l.459-1.428a2.096 2.096 0 0 0-1.549.107L12 2.808Zm2.154 8.176h5.181v-1.5h-5.18v1.5Zm.582-5.641a5.531 5.531 0 0 0-.105-2.284l-1.452.377c.141.543.167 1.11.077 1.664l1.48.243ZM8.596 21.25a.915.915 0 0 1-.911-.837l-1.495.129a2.416 2.416 0 0 0 2.406 2.208v-1.5Zm.03-12.244c.68-.586 1.413-1.283 1.897-2.19L9.2 6.109c-.346.649-.898 1.196-1.553 1.76l.98 1.137Zm13.088 3.307a2.416 2.416 0 0 0-2.38-2.829v1.5c.567 0 .999.512.902 1.073l1.478.256Zm-9.122-3.168a1.583 1.583 0 0 0 1.561 1.84v-1.5a.083.083 0 0 1-.08-.098l-1.481-.242Zm-5.72 1.875a.918.918 0 0 1 .315-.774l-.979-1.137a2.418 2.418 0 0 0-.83 2.04l1.495-.13Z" fill="#4891FF"/>
    <path opacity=".5" d="m3.972 21.47-.748.066.748-.065ZM3 10.235l.747-.064a.75.75 0 0 0-1.497.064H3Zm1.719 11.172L3.747 10.17l-1.494.129.971 11.236 1.495-.129Zm-.969.107V10.234h-1.5v11.279h1.5Zm-.526.022a.263.263 0 0 1 .263-.285v1.5c.726 0 1.294-.622 1.232-1.344l-1.495.13Zm.263-.285c.146 0 .263.119.263.263h-1.5c0 .682.553 1.237 1.237 1.237v-1.5Z" fill="#4891FF"/>
</symbol><symbol fill="none" viewBox="0 0 24 24" id="svg-addres-book" xmlns="http://www.w3.org/2000/svg">
    <path d="m20.082 3.018.026.75-.026-.75Zm-3.582.47-.215-.719.215.719Zm-2.826 1.315-.376-.65.376.65ZM3.982 3.075l-.046.749.046-.749ZM7 3.488l.191-.726L7 3.488Zm3.282 1.388-.35.663.35-.663Zm3.346 15.193.352.662-.352-.662ZM17 18.634l-.191-.726.191.726Zm2.985-.411.047.748-.047-.748Zm-9.613 1.846-.352.662.352-.662ZM7 18.634l.191-.726-.191.726Zm-2.985-.411-.047.748.047-.748Zm-1.265-2.08V4.999h-1.5v11.146h1.5Zm20 0V4.934h-1.5v11.21h1.5ZM20.056 2.269c-1.139.04-2.626.158-3.771.501l.43 1.437c.95-.284 2.274-.4 3.393-.439l-.052-1.499Zm-3.771.501c-.995.298-2.114.88-2.987 1.385l.752 1.298c.85-.492 1.845-1 2.665-1.246l-.43-1.437ZM3.936 3.824c.966.059 2.06.174 2.873.389l.382-1.45c-.96-.254-2.176-.376-3.163-.437l-.092 1.498Zm2.873.389c.962.254 2.146.81 3.123 1.326l.7-1.326c-.995-.527-2.304-1.15-3.44-1.45l-.383 1.45ZM13.98 20.73c.991-.528 2.219-1.11 3.211-1.372l-.382-1.45c-1.17.308-2.526.961-3.534 1.498l.705 1.324Zm3.211-1.372c.803-.212 1.882-.328 2.841-.388l-.094-1.497c-.98.062-2.179.183-3.13.434l.383 1.45Zm-6.466.048c-1.008-.537-2.363-1.19-3.534-1.499l-.382 1.45c.992.263 2.22.845 3.21 1.373l.706-1.324Zm-3.534-1.499c-.95-.25-2.15-.372-3.13-.434l-.093 1.497c.959.06 2.038.176 2.84.388l.383-1.45Zm14.059-1.764c0 .686-.568 1.284-1.312 1.33l.094 1.497c1.474-.092 2.718-1.291 2.718-2.827h-1.5Zm1.5-11.21c0-1.464-1.165-2.719-2.694-2.666l.052 1.5c.615-.022 1.142.484 1.142 1.165h1.5Zm-21.5 11.21c0 1.536 1.244 2.735 2.718 2.828l.094-1.498c-.744-.046-1.312-.645-1.312-1.33h-1.5Zm12.025 3.264a2.723 2.723 0 0 1-2.55 0l-.705 1.323a4.224 4.224 0 0 0 3.96 0l-.705-1.324Zm.023-15.254a2.77 2.77 0 0 1-2.665.059l-.701 1.326a4.27 4.27 0 0 0 4.117-.087l-.75-1.298ZM2.75 4.998c0-.697.552-1.213 1.186-1.174l.092-1.498C2.47 2.231 1.25 3.5 1.25 4.998h1.5Z" fill="#4891FF"/>
    <path opacity=".5" d="M12 5.854V21" stroke="#4891FF" stroke-width="1.5"/>
    <path opacity=".5" d="m5 9 4 1M5 13l4 1M19 13l-4 1" stroke="#4891FF" stroke-width="1.5" stroke-linecap="round"/>
    <path d="M19 5.5v4.01c0 .276 0 .414-.095.47-.095.055-.224-.007-.484-.13l-1.242-.59c-.088-.042-.132-.062-.179-.062-.047 0-.091.02-.179.062l-1.242.59c-.26.123-.39.185-.484.13C15 9.923 15 9.785 15 9.51V6.95" stroke="#4891FF" stroke-width="1.5" stroke-linecap="round"/>
</symbol><symbol fill="none" viewBox="0 0 33 32" id="svg-menu" xmlns="http://www.w3.org/2000/svg">
    <path opacity=".5" d="M3.833 8.667c0-2.514 0-3.772.781-4.553.781-.78 2.038-.78 4.552-.78s3.772 0 4.553.78c.78.781.78 2.039.78 4.553s0 3.77-.78 4.552C12.938 14 11.68 14 9.166 14c-2.514 0-3.77 0-4.552-.781-.781-.781-.781-2.038-.781-4.552ZM18.5 23.333c0-2.514 0-3.77.781-4.552C20.062 18 21.319 18 23.833 18c2.515 0 3.772 0 4.553.781.78.781.78 2.038.78 4.552 0 2.515 0 3.772-.78 4.553-.781.78-2.038.78-4.553.78-2.514 0-3.77 0-4.552-.78-.781-.781-.781-2.038-.781-4.553Z" stroke="#4891FF" stroke-width="1.5"/>
    <path d="M3.833 23.333c0-2.514 0-3.77.781-4.552C5.395 18 6.652 18 9.166 18s3.772 0 4.553.781c.78.781.78 2.038.78 4.552 0 2.515 0 3.772-.78 4.553-.781.78-2.038.78-4.553.78-2.514 0-3.77 0-4.552-.78-.781-.781-.781-2.038-.781-4.553ZM18.5 8.667c0-2.514 0-3.772.781-4.553.781-.78 2.038-.78 4.552-.78 2.515 0 3.772 0 4.553.78.78.781.78 2.039.78 4.553s0 3.77-.78 4.552c-.781.781-2.038.781-4.553.781-2.514 0-3.77 0-4.552-.781-.781-.781-.781-2.038-.781-4.552Z" stroke="#4891FF" stroke-width="1.5"/>
</symbol><symbol fill="none" viewBox="0 0 32 32" id="svg-bagStore" xmlns="http://www.w3.org/2000/svg">
    <path opacity=".5" d="m16 16.255-.519.542a.75.75 0 0 0 1.038 0L16 16.255Zm-.964 5.122-.43.615.43-.615Zm.964.454v-.75.75Zm-.535-1.069c-.572-.4-1.281-.95-1.84-1.556-.585-.635-.875-1.192-.875-1.61h-1.5c0 1.014.636 1.935 1.273 2.626.663.72 1.472 1.343 2.084 1.77l.858-1.23Zm-2.715-3.166c0-.855.4-1.297.823-1.446.444-.155 1.158-.072 1.908.647l1.038-1.084c-1.05-1.004-2.336-1.366-3.442-.978-1.127.395-1.827 1.485-1.827 2.86h1.5Zm4.643 4.396c.612-.427 1.42-1.05 2.084-1.77.637-.69 1.273-1.612 1.273-2.627h-1.5c0 .42-.29.976-.876 1.61-.558.607-1.267 1.158-1.84 1.557l.86 1.23Zm3.357-4.396c0-1.377-.7-2.466-1.827-2.861-1.106-.388-2.392-.026-3.442.978l1.038 1.084c.75-.719 1.464-.803 1.908-.647.423.149.823.59.823 1.446h1.5Zm-6.143 4.396c.376.263.796.589 1.393.589v-1.5c-.016 0-.033.001-.096-.031a4.432 4.432 0 0 1-.439-.288l-.858 1.23Zm1.928-1.23c-.232.162-.348.24-.44.288-.063.032-.079.03-.095.03v1.5c.597 0 1.017-.325 1.393-.588l-.858-1.23Z" fill="#4891FF"/>
    <path opacity=".5" d="M12 8V6.667a4 4 0 0 1 8 0V8" stroke="#4891FF" stroke-width="1.5" stroke-linecap="round"/>
    <path d="M4.988 27.406c1.6 1.927 4.577 1.927 10.53 1.927h.962c5.954 0 8.931 0 10.53-1.927m-22.022 0c-1.6-1.927-1.05-4.853.047-10.705.78-4.162 1.17-6.242 2.651-7.472M4.988 27.406Zm22.023 0c1.6-1.927 1.05-4.853-.047-10.705-.78-4.162-1.17-6.242-2.651-7.472m2.698 18.177ZM24.313 9.23C22.83 8 20.714 8 16.48 8h-.961c-4.234 0-6.351 0-7.833 1.23m16.627 0Zm-16.627 0Z" stroke="#4891FF" stroke-width="1.5"/>
</symbol><symbol fill="none" viewBox="0 0 33 32" id="svg-tools" xmlns="http://www.w3.org/2000/svg">
    <path d="M25.5 15.582c-1.102.195-2 .757-2 1.918v11c0 1.473 1.527 2 3 2s3-.527 3-2v-11c0-1.16-.898-1.723-2-1.918m-2 0V5.5c0-.5-.5-1-.5-2s1-2 1.5-2 1.5 1 1.5 2-.5 1.5-.5 2v10.082m-2 0c.39-.032.5-.082 1-.082s.61.05 1 .082" stroke="#4891FF" stroke-width="1.5"/>
    <path opacity=".5" d="M26.5 18v10" stroke="#4891FF" stroke-width="1.5" stroke-linecap="round"/>
    <path d="M2.5 9.5c0-3.771 0-5.657 1.172-6.828C4.843 1.5 6.729 1.5 10.5 1.5c3.771 0 5.657 0 6.828 1.172C18.5 3.843 18.5 5.729 18.5 9.5v13c0 3.771 0 5.657-1.172 6.828C16.157 30.5 14.271 30.5 10.5 30.5c-3.771 0-5.657 0-6.828-1.172C2.5 28.157 2.5 26.271 2.5 22.5v-13Z" stroke="#4891FF" stroke-width="1.5"/>
    <path opacity=".5" d="M13.5 28h-6m1-24.5h4" stroke="#4891FF" stroke-width="1.5" stroke-linecap="round"/>
</symbol><symbol fill="none" viewBox="0 0 33 32" id="svg-tools-black" xmlns="http://www.w3.org/2000/svg">
    <path d="M25.5 15.582c-1.102.195-2 .757-2 1.918v11c0 1.473 1.527 2 3 2s3-.527 3-2v-11c0-1.16-.898-1.723-2-1.918m-2 0V5.5c0-.5-.5-1-.5-2s1-2 1.5-2 1.5 1 1.5 2-.5 1.5-.5 2v10.082m-2 0c.39-.032.5-.082 1-.082s.61.05 1 .082" stroke="#142340" stroke-width="1.5"/>
    <path opacity=".5" d="M26.5 18v10" stroke="#142340" stroke-width="1.5" stroke-linecap="round"/>
    <path d="M2.5 9.5c0-3.771 0-5.657 1.172-6.828C4.843 1.5 6.729 1.5 10.5 1.5c3.771 0 5.657 0 6.828 1.172C18.5 3.843 18.5 5.729 18.5 9.5v13c0 3.771 0 5.657-1.172 6.828C16.157 30.5 14.271 30.5 10.5 30.5c-3.771 0-5.657 0-6.828-1.172C2.5 28.157 2.5 26.271 2.5 22.5v-13Z" stroke="#142340" stroke-width="1.5"/>
    <path opacity=".5" d="M13.5 28h-6m1-24.5h4" stroke="#142340" stroke-width="1.5" stroke-linecap="round"/>
</symbol><symbol fill="none" viewBox="0 0 33 32" id="svg-menu-black" xmlns="http://www.w3.org/2000/svg">
    <path opacity=".5" d="M3.833 8.667c0-2.514 0-3.772.781-4.553.781-.78 2.038-.78 4.552-.78s3.772 0 4.553.78c.78.781.78 2.039.78 4.553s0 3.77-.78 4.552C12.938 14 11.68 14 9.166 14c-2.514 0-3.77 0-4.552-.781-.781-.781-.781-2.038-.781-4.552ZM18.5 23.333c0-2.514 0-3.77.781-4.552C20.062 18 21.319 18 23.833 18c2.515 0 3.772 0 4.553.781.78.781.78 2.038.78 4.552 0 2.515 0 3.772-.78 4.553-.781.78-2.038.78-4.553.78-2.514 0-3.77 0-4.552-.78-.781-.781-.781-2.038-.781-4.553Z" stroke="#142340" stroke-width="1.5"/>
    <path d="M3.833 23.333c0-2.514 0-3.77.781-4.552C5.395 18 6.652 18 9.166 18s3.772 0 4.553.781c.78.781.78 2.038.78 4.552 0 2.515 0 3.772-.78 4.553-.781.78-2.038.78-4.553.78-2.514 0-3.77 0-4.552-.78-.781-.781-.781-2.038-.781-4.553ZM18.5 8.667c0-2.514 0-3.772.781-4.553.781-.78 2.038-.78 4.552-.78 2.515 0 3.772 0 4.553.78.78.781.78 2.039.78 4.553s0 3.77-.78 4.552c-.781.781-2.038.781-4.553.781-2.514 0-3.77 0-4.552-.781-.781-.781-.781-2.038-.781-4.552Z" stroke="#142340" stroke-width="1.5"/>
</symbol><symbol fill="none" viewBox="0 0 32 32" id="svg-bagStore-black" xmlns="http://www.w3.org/2000/svg">
    <path opacity=".5" d="m16 16.255-.519.542a.75.75 0 0 0 1.038 0L16 16.255Zm-.964 5.122-.43.615.43-.615Zm.964.454v-.75.75Zm-.535-1.069c-.572-.399-1.281-.95-1.84-1.556-.585-.635-.875-1.192-.875-1.61h-1.5c0 1.014.636 1.935 1.273 2.626.663.72 1.472 1.343 2.084 1.77l.858-1.23Zm-2.715-3.166c0-.855.4-1.297.823-1.446.444-.155 1.158-.072 1.908.647l1.038-1.084c-1.05-1.004-2.336-1.366-3.442-.978-1.127.395-1.827 1.485-1.827 2.86h1.5Zm4.643 4.396c.612-.427 1.42-1.05 2.084-1.77.637-.69 1.273-1.612 1.273-2.626h-1.5c0 .418-.29.975-.876 1.61-.558.606-1.267 1.157-1.84 1.556l.86 1.23Zm3.357-4.396c0-1.376-.7-2.466-1.827-2.861-1.106-.388-2.392-.026-3.442.978l1.038 1.084c.75-.719 1.464-.802 1.908-.647.423.149.823.59.823 1.446h1.5Zm-6.143 4.396c.376.263.796.589 1.393.589v-1.5c-.016 0-.033.001-.096-.031a4.42 4.42 0 0 1-.439-.288l-.858 1.23Zm1.928-1.23a4.42 4.42 0 0 1-.44.288c-.063.032-.079.03-.095.03v1.5c.597 0 1.017-.325 1.393-.588l-.858-1.23Z" fill="#142340"/>
    <path opacity=".5" d="M12 8V6.667a4 4 0 0 1 8 0V8" stroke="#142340" stroke-width="1.5" stroke-linecap="round"/>
    <path d="M4.988 27.406c1.6 1.927 4.577 1.927 10.53 1.927h.962c5.954 0 8.931 0 10.53-1.927m-22.022 0c-1.6-1.927-1.05-4.853.047-10.705.78-4.162 1.17-6.242 2.651-7.472M4.988 27.406Zm22.023 0c1.6-1.927 1.05-4.853-.047-10.705-.78-4.162-1.17-6.242-2.651-7.472m2.698 18.177ZM24.313 9.23C22.83 8 20.714 8 16.48 8h-.961c-4.234 0-6.351 0-7.833 1.23m16.627 0Zm-16.627 0Z" stroke="#142340" stroke-width="1.5"/>
</symbol><symbol fill="none" viewBox="0 0 16 16" id="svg-arrow-blue" xmlns="http://www.w3.org/2000/svg">
    <path d="m13 6-4.667 4-4.666-4" stroke="#4891FF" stroke-width="1.25" stroke-linecap="round" stroke-linejoin="round"/>
</symbol><symbol fill="none" viewBox="0 0 24 24" id="svg-iphone" xmlns="http://www.w3.org/2000/svg">
    <path d="M4 10c0-3.771 0-5.657 1.172-6.828C6.343 2 8.229 2 12 2c3.771 0 5.657 0 6.828 1.172C20 4.343 20 6.229 20 10v4c0 3.771 0 5.657-1.172 6.828C17.657 22 15.771 22 12 22c-3.771 0-5.657 0-6.828-1.172C4 19.657 4 17.771 4 14v-4Z" stroke="#4891FF" stroke-width="1.5"/>
    <path opacity=".5" d="M15 19H9" stroke="#4891FF" stroke-width="1.5" stroke-linecap="round"/>
</symbol><symbol fill="none" viewBox="0 0 24 24" id="svg-ipad" xmlns="http://www.w3.org/2000/svg">
    <path d="M10 20c-3.771 0-5.657 0-6.828-1.172C2 17.657 2 15.771 2 12c0-3.771 0-5.657 1.172-6.828C4.343 4 6.229 4 10 4h4c3.771 0 5.657 0 6.828 1.172C22 6.343 22 8.229 22 12c0 3.771 0 5.657-1.172 6.828C19.657 20 17.771 20 14 20h-4Z" stroke="#4891FF" stroke-width="1.5"/>
    <path opacity=".5" d="M15 17H9" stroke="#4891FF" stroke-width="1.5" stroke-linecap="round"/>
</symbol><symbol fill="none" viewBox="0 0 24 24" id="svg-mac" xmlns="http://www.w3.org/2000/svg">
    <path d="M19.647 15.536H4.353m15.294 0V8c0-1.886 0-2.828-.586-3.414C18.476 4 17.533 4 15.647 4H8.353c-1.886 0-2.828 0-3.414.586-.586.586-.586 1.528-.586 3.414v7.536m15.294 0 1.744 1.8.088.092a2 2 0 0 1 .52 1.284l.001.127c0 .15 0 .224-.004.287a2 2 0 0 1-1.87 1.87 5.006 5.006 0 0 1-.287.004H4.161c-.15 0-.224 0-.287-.004a2 2 0 0 1-1.87-1.87C2 19.063 2 18.988 2 18.84l.001-.127a2 2 0 0 1 .52-1.284l.088-.092 1.744-1.8" stroke="#4891FF" stroke-width="1.5" stroke-linecap="round"/>
    <path opacity=".5" d="M9.5 18.5h5" stroke="#4891FF" stroke-width="1.5" stroke-linecap="round"/>
    <path opacity=".5" d="M12.75 6.75a.75.75 0 1 1-1.5 0 .75.75 0 0 1 1.5 0Z" fill="#4891FF"/>
</symbol><symbol fill="none" viewBox="0 0 24 24" id="svg-imac" xmlns="http://www.w3.org/2000/svg">
    <path d="M2 10c0-3.771 0-5.657 1.172-6.828C4.343 2 6.229 2 10 2h4c3.771 0 5.657 0 6.828 1.172C22 4.343 22 6.229 22 10v1c0 2.828 0 4.243-.879 5.121C20.243 17 18.828 17 16 17H8c-2.828 0-4.243 0-5.121-.879C2 15.243 2 13.828 2 11v-1Z" stroke="#4891FF" stroke-width="1.5"/>
    <path d="M16 22H8M12 17v5" stroke="#4891FF" stroke-width="1.5" stroke-linecap="round"/>
    <path opacity=".5" d="M22 13H2" stroke="#4891FF" stroke-width="1.5" stroke-linecap="round"/>
</symbol><symbol fill="none" viewBox="0 0 24 24" id="svg-iwatch" xmlns="http://www.w3.org/2000/svg">
    <path d="M5 12c0-2.809 0-4.213.674-5.222a4 4 0 0 1 1.104-1.104C7.787 5 9.19 5 12 5c2.809 0 4.213 0 5.222.674.437.292.812.667 1.104 1.104C19 7.787 19 9.19 19 12c0 2.809 0 4.213-.674 5.222a4.003 4.003 0 0 1-1.104 1.104C16.213 19 14.81 19 12 19c-2.809 0-4.213 0-5.222-.674a4.002 4.002 0 0 1-1.104-1.104C5 16.213 5 14.81 5 12Z" stroke="#4891FF" stroke-width="1.5"/>
    <path opacity=".5" d="M12 9v3.077L14 14" stroke="#4891FF" stroke-width="1.5" stroke-linecap="round" stroke-linejoin="round"/>
    <path d="m16.778 5.5-.081-.368c-.334-1.501-.501-2.252-1.05-2.692C15.1 2 14.33 2 12.793 2h-1.583c-1.538 0-2.307 0-2.856.44-.548.44-.715 1.19-1.049 2.692l-.081.368" stroke="#4891FF" stroke-width="1.5"/>
    <path d="m16.778 5.5-.081-.368c-.334-1.501-.501-2.252-1.05-2.692C15.1 2 14.33 2 12.793 2h-1.583c-1.538 0-2.307 0-2.856.44-.548.44-.715 1.19-1.049 2.692l-.081.368M16.778 18.5l-.081.368c-.334 1.501-.501 2.252-1.05 2.692-.548.44-1.317.44-2.855.44h-1.583c-1.538 0-2.307 0-2.856-.44-.548-.44-.715-1.19-1.049-2.692l-.081-.368" stroke="#4891FF" stroke-width="1.5"/>
</symbol><symbol fill="none" viewBox="0 0 24 24" id="svg-airPods" xmlns="http://www.w3.org/2000/svg">
    <path d="M3 12.833c0-.781 0-1.172.207-1.442.053-.07.115-.131.184-.184.27-.207.66-.207 1.442-.207h14.334c.781 0 1.172 0 1.442.207.07.053.131.115.184.184.207.27.207.66.207 1.442V13c0 3.75 0 5.625-.955 6.939a5 5 0 0 1-1.106 1.106C17.625 22 15.749 22 12 22c-3.75 0-5.625 0-6.939-.955a5 5 0 0 1-1.106-1.106C3 18.625 3 16.749 3 13v-.167ZM3.5 5.941V4.625A2.625 2.625 0 0 1 6.125 2 4.375 4.375 0 0 1 10.5 6.375V11H6.794V9.236a.824.824 0 0 0-.823-.824A2.47 2.47 0 0 1 3.5 5.942ZM20.5 5.941V4.625A2.625 2.625 0 0 0 17.875 2 4.375 4.375 0 0 0 13.5 6.375V11h3.706V9.236c0-.455.369-.824.823-.824a2.47 2.47 0 0 0 2.471-2.47Z" stroke="#4891FF" stroke-width="1.5"/>
    <path opacity=".5" d="M8 11a2 2 0 0 0 2 2h4a2 2 0 0 0 2-2" stroke="#4891FF" stroke-width="1.5"/>
</symbol><symbol fill="none" viewBox="0 0 20 20" id="svg-info" xmlns="http://www.w3.org/2000/svg">
    <g clip-path="url(#aa)">
        <circle opacity=".5" cx="10" cy="10" r="8.333" stroke="#4891FF" stroke-width="1.5"/>
        <path d="M10 14.167v-5" stroke="#4891FF" stroke-width="1.5" stroke-linecap="round"/>
        <circle cx=".833" cy=".833" r=".833" transform="matrix(1 0 0 -1 9.167 7.5)" fill="#4891FF"/>
    </g>
    <defs>
        <clipPath id="aa">
            <path fill="#fff" d="M0 0h20v20H0z"/>
        </clipPath>
    </defs>
</symbol><symbol fill="none" viewBox="0 0 9 18" id="svg-arrow-left" xmlns="http://www.w3.org/2000/svg">
    <path d="M8 17.25 1.5 9.375 8 1.5" stroke="#4891FF" stroke-width="1.25" stroke-linecap="round" stroke-linejoin="round"/>
</symbol><symbol fill="none" viewBox="0 0 48 48" id="svg-application" xmlns="http://www.w3.org/2000/svg">
    <path d="m30.786 8.107-.502.558.502-.558Zm7.917 7.126-.501.558.501-.558Zm4.605 5.075-.685.305.685-.305ZM6.343 41.657l.53-.53-.53.53Zm35.314 0-.53-.53.53.53ZM28 43.25h-8v1.5h8v-1.5ZM4.75 28v-8h-1.5v8h1.5Zm38.5-.874V28h1.5v-.874h-1.5ZM30.284 8.665l7.918 7.126 1.003-1.115-7.917-7.126-1.004 1.115Zm14.466 18.46c0-3.442.015-5.389-.757-7.122l-1.37.61c.612 1.374.627 2.937.627 6.513h1.5Zm-6.548-11.334c2.657 2.391 3.809 3.448 4.42 4.822l1.371-.61c-.772-1.733-2.229-3.024-4.788-5.327l-1.003 1.115ZM20.06 4.75c3.106 0 4.466.012 5.69.481l.537-1.4c-1.544-.593-3.234-.581-6.227-.581v1.5Zm11.228 2.8c-2.214-1.993-3.457-3.127-5-3.72l-.538 1.401c1.224.47 2.237 1.366 4.534 3.434l1.004-1.115ZM20 43.25c-3.792 0-6.561-.002-8.678-.286-2.096-.282-3.44-.828-4.449-1.837l-1.06 1.06c1.334 1.334 3.047 1.96 5.309 2.263 2.24.302 5.128.3 8.878.3v-1.5ZM3.25 28c0 3.75-.002 6.638.3 8.878.304 2.262.929 3.975 2.263 5.31l1.06-1.062c-1.009-1.008-1.555-2.352-1.837-4.448-.284-2.117-.286-4.886-.286-8.678h-1.5ZM28 44.75c3.75 0 6.638.002 8.878-.3 2.262-.304 3.975-.929 5.31-2.263l-1.062-1.06c-1.008 1.008-2.352 1.555-4.448 1.837-2.117.284-4.886.286-8.678.286v1.5ZM43.25 28c0 3.792-.002 6.561-.286 8.678-.282 2.096-.828 3.44-1.837 4.449l1.06 1.06c1.334-1.334 1.96-3.047 2.263-5.309.302-2.24.3-5.128.3-8.878h-1.5Zm-38.5-8c0-3.792.002-6.561.286-8.678.282-2.096.828-3.44 1.837-4.449l-1.06-1.06C4.479 7.147 3.853 8.86 3.55 11.122c-.302 2.24-.3 5.128-.3 8.878h1.5ZM20.06 3.25c-3.77 0-6.673-.002-8.923.3-2.27.303-3.99.928-5.324 2.263l1.06 1.06c1.009-1.008 2.357-1.555 4.463-1.837 2.127-.284 4.911-.286 8.724-.286v-1.5Z" fill="#4891FF"/>
    <path opacity=".5" d="M26 5v5c0 4.714 0 7.071 1.465 8.535C28.928 20 31.286 20 36 20h8" stroke="#4891FF" stroke-width="1.5"/>
    <path opacity=".5" d="M17 37V27m0 0-4 3.75M17 27l4 3.75" stroke="#4891FF" stroke-width="1.5" stroke-linecap="round" stroke-linejoin="round"/>
</symbol><symbol fill="none" viewBox="0 0 24 24" id="svg-man" xmlns="http://www.w3.org/2000/svg">
    <circle cx="12" cy="6" r="4" stroke="#4891FF" stroke-width="1.5"/>
    <path opacity=".5" d="M20 17.5c0 2.485 0 4.5-8 4.5s-8-2.015-8-4.5S7.582 13 12 13s8 2.015 8 4.5Z" stroke="#4891FF" stroke-width="1.5"/>
</symbol><symbol fill="none" viewBox="0 0 24 24" id="svg-telephone" xmlns="http://www.w3.org/2000/svg">
    <path d="m19 5-4 4m0 0V6m0 3h3" stroke="#4891FF" stroke-width="1.5" stroke-linecap="round" stroke-linejoin="round"/>
    <path opacity=".5" d="m15.1 15.027-.543-.516.544.516Zm.456-.48.544.517-.544-.516Zm2.417-.335-.374.65.374-.65Zm1.91 1.1-.374.65.374-.65Zm.539 3.446.543.517-.543-.517Zm-1.42 1.496-.545-.517.544.517Zm-1.326.71.074.745-.074-.746Zm-9.86-4.489.543-.516-.544.516Zm-4.813-9.51-.749.041.749-.04Zm6.475 1.538.543.517-.543-.517Zm.156-2.81.613-.433-.613.433ZM8.374 3.91l-.613.433.612-.433ZM5.26 3.609l.544.516-.544-.516ZM3.691 5.26l-.543-.516.544.516Zm7.372 7.795.544-.517-.544.517Zm4.582 2.488.455-.48-1.088-1.033-.455.48 1.088 1.033Zm1.954-.682 1.91 1.1.748-1.3-1.91-1.1-.748 1.3Zm2.279 3.38-1.42 1.495 1.087 1.034 1.42-1.496-1.087-1.033Zm-2.275 1.975c-1.435.141-5.18.02-9.244-4.258l-1.087 1.033c4.429 4.663 8.654 4.898 10.478 4.717l-.147-1.492Zm-9.244-4.258c-3.876-4.081-4.526-7.523-4.607-9.033l-1.498.08c.1 1.85.884 5.634 5.018 9.986l1.087-1.033Zm1.376-6.637.286-.302-1.087-1.033-.287.302 1.088 1.033Zm.512-4.062L8.986 3.477l-1.225.866 1.26 1.783 1.226-.866Zm-5.53-2.168L3.149 4.745l1.088 1.033 1.57-1.653-1.088-1.033Zm4.474 5.713c-.544-.516-.545-.516-.545-.515l-.002.002-.003.003a.822.822 0 0 0-.05.058 1.592 1.592 0 0 0-.23.427c-.098.275-.15.639-.084 1.093.13.892.715 2.091 2.242 3.7l1.088-1.034c-1.428-1.503-1.78-2.428-1.846-2.884-.032-.22 0-.335.013-.372l.008-.019a.249.249 0 0 1-.028.037.705.705 0 0 1-.018.02s-.002 0-.545-.516Zm1.328 4.767c1.523 1.604 2.673 2.234 3.55 2.377.451.073.816.014 1.092-.095a1.52 1.52 0 0 0 .421-.25.922.922 0 0 0 .036-.034l.014-.014a.369.369 0 0 0 .007-.006l.003-.003.001-.002s.002-.001-.542-.518c-.544-.516-.543-.517-.543-.518l.002-.001.002-.003a.241.241 0 0 0 .005-.005l.01-.01a.446.446 0 0 1 .037-.032c.01-.006.009-.004-.004.001-.02.008-.11.04-.3.009-.402-.066-1.27-.42-2.703-1.929l-1.088 1.033ZM8.986 3.477C7.972 2.043 5.944 1.8 4.718 3.092l1.087 1.033c.523-.55 1.444-.507 1.956.218l1.225-.866ZM3.752 6.926c-.022-.4.152-.8.484-1.148L3.148 4.745c-.536.564-.943 1.347-.894 2.261l1.498-.08Zm14.705 12.811c-.279.294-.57.452-.854.48l.147 1.492c.747-.073 1.352-.472 1.795-.939l-1.088-1.032ZM10.021 9.02c.968-1.019 1.036-2.613.226-3.76l-1.225.866c.422.597.357 1.392-.088 1.86L10.02 9.02Zm9.488 6.942c.821.473.982 1.635.369 2.28l1.087 1.033c1.305-1.374.925-3.673-.707-4.613l-.749 1.3Zm-3.409-.898c.385-.406.986-.497 1.499-.202l.748-1.3c-1.099-.632-2.46-.45-3.335.47l1.088 1.032Z" fill="#4891FF"/>
</symbol><symbol fill="none" viewBox="0 0 24 24" id="svg-clock" xmlns="http://www.w3.org/2000/svg">
    <path d="M12 8v4l2.5 2.5" stroke="#4891FF" stroke-width="1.5" stroke-linecap="round" stroke-linejoin="round"/>
    <path opacity=".5" d="M2 12c0-4.714 0-7.071 1.464-8.536C4.93 2 7.286 2 12 2c4.714 0 7.071 0 8.535 1.464C22 4.93 22 7.286 22 12c0 4.714 0 7.071-1.465 8.535C19.072 22 16.714 22 12 22s-7.071 0-8.536-1.465C2 19.072 2 16.714 2 12Z" stroke="#4891FF" stroke-width="1.5"/>
</symbol><symbol fill="none" viewBox="0 0 32 33" id="svg-route" xmlns="http://www.w3.org/2000/svg">
    <path d="M2.667 7.51c0-2.399 2.09-4.343 4.667-4.343S12 5.11 12 7.51c0 2.38-1.49 5.157-3.813 6.15a2.184 2.184 0 0 1-1.707 0c-2.324-.993-3.813-3.77-3.813-6.15ZM20 23.51c0-2.399 2.09-4.343 4.667-4.343s4.666 1.944 4.666 4.343c0 2.38-1.49 5.157-3.813 6.15a2.184 2.184 0 0 1-1.707 0C21.49 28.667 20 25.89 20 23.51Z" stroke="#4891FF" stroke-width="1.5"/>
    <path opacity=".5" d="M16 6.417a.75.75 0 0 0 0 1.5v-1.5Zm0 19.416.53.53a.75.75 0 0 0 0-1.06l-.53.53Zm6.94-13.75.403.633-.402-.633ZM9.06 20.917l.402.633-.403-.633Zm5.47 2.386a.75.75 0 0 0-1.06 1.06l1.06-1.06Zm-1.06 4a.75.75 0 1 0 1.06 1.06l-1.06-1.06Zm8.04-20.886H16v1.5h5.51v-1.5ZM16 25.083h-5.51v1.5H16v-1.5Zm6.538-13.633L8.656 20.284l.806 1.266 13.881-8.834-.805-1.266ZM16.53 25.303l-2-2-1.06 1.06 2 2 1.06-1.06Zm-1.06 0-2 2 1.06 1.06 2-2-1.06-1.06Zm-4.98-.22c-1.917 0-2.646-2.504-1.028-3.533l-.806-1.266c-2.883 1.835-1.583 6.3 1.835 6.3v-1.5ZM21.51 7.917c1.917 0 2.646 2.504 1.028 3.533l.805 1.266c2.884-1.835 1.584-6.3-1.834-6.3v1.5Z" fill="#4891FF"/>
    <path d="M24.667 23.833h.012M7.321 7.833h.012" stroke="#4891FF" stroke-width="1.5" stroke-linecap="round" stroke-linejoin="round"/>
</symbol><symbol fill="none" viewBox="0 0 48 48" id="svg-appleService" xmlns="http://www.w3.org/2000/svg">
    <path d="M23.5 16C14 16 9 24 9 31.5S14 47 23.5 47c3.5 0 7-1.5 9.5-4 1-1 1 0 1 1.5 0 2 .5 2 2.5 2s2 0 2-2V18c0-2 0-2-2-2S34 16 34 18c0 1.5 0 2.5-1 1.5-2-2.5-6-3.5-9.5-3.5Z" stroke="#4891FF" stroke-width="1.5"/>
    <path d="M33.442 1.881c0 2.203-.804 4.26-2.409 6.164-1.936 2.263-4.277 3.571-6.817 3.365a6.83 6.83 0 0 1-.051-.835c0-2.115.92-4.378 2.556-6.229.816-.937 1.854-1.716 3.113-2.337 1.256-.613 2.444-.951 3.562-1.009.033.295.046.59.046.881ZM23.5 22.5c-5.5 0-8.5 3.5-8.5 9s3 9 8.5 9 8.5-3.5 8.5-9-3-9-8.5-9Z" stroke="#4891FF" stroke-opacity=".5" stroke-width="1.5"/>
</symbol><symbol fill="none" viewBox="0 0 101 101" id="svg-horizontal" xmlns="http://www.w3.org/2000/svg">
    <path d="m77.35 80.176 1.06 1.06-1.06-1.06Zm-33.916 0 1.06-1.06-1.06 1.06Zm36.742-36.742-1.061 1.061 1.06-1.06Zm0 33.916-1.061-1.061 1.06 1.06Zm11.99-16.958h1.5-1.5ZM23.65 20.824l1.06 1.06-1.06-1.06Zm33.915 0 1.061-1.06-1.06 1.06ZM40.608 8.834v1.5-1.5ZM20.824 23.65l-1.06-1.06 1.06 1.06Zm0 33.916-1.06 1.06 1.06-1.06ZM8.833 40.608h-1.5 1.5Zm13.051-15.897 2.827-2.826-2.121-2.122-2.827 2.827 2.121 2.121Zm34.62-2.826 22.61 22.61 2.122-2.121-22.61-22.61-2.121 2.12Zm22.61 54.404-2.825 2.826 2.12 2.122 2.827-2.827-2.121-2.121Zm-34.62 2.826-22.61-22.61-2.12 2.121 22.61 22.61 2.12-2.12Zm31.795 0c-4.027 4.027-6.943 6.938-9.464 8.861-2.486 1.897-4.41 2.69-6.433 2.69v3c2.943 0 5.5-1.204 8.253-3.304 2.718-2.074 5.798-5.159 9.765-9.125l-2.121-2.122Zm-33.916 2.122c3.967 3.966 7.047 7.05 9.765 9.125 2.753 2.1 5.31 3.305 8.254 3.305v-3c-2.024 0-3.948-.794-6.434-2.69-2.52-1.924-5.436-4.835-9.463-8.862l-2.122 2.122Zm36.742-36.742c4.027 4.027 6.938 6.943 8.861 9.463 1.897 2.486 2.69 4.41 2.69 6.434h3c0-2.943-1.205-5.5-3.305-8.254-2.074-2.718-5.158-5.797-9.125-9.764l-2.121 2.121Zm2.121 33.915c3.967-3.967 7.051-7.046 9.125-9.765 2.1-2.752 3.305-5.31 3.305-8.253h-3c0 2.023-.793 3.948-2.69 6.434-1.923 2.52-4.834 5.436-8.861 9.463l2.121 2.121ZM24.711 21.885c4.027-4.027 6.943-6.938 9.463-8.861 2.486-1.897 4.41-2.69 6.434-2.69v-3c-2.944 0-5.501 1.204-8.254 3.305-2.718 2.073-5.798 5.158-9.764 9.125l2.12 2.12Zm33.915-2.122c-3.967-3.967-7.047-7.05-9.765-9.125-2.752-2.1-5.31-3.305-8.253-3.305v3c2.023 0 3.948.794 6.434 2.69 2.52 1.924 5.436 4.835 9.463 8.862l2.121-2.122ZM19.763 22.59c-3.967 3.967-7.05 7.046-9.125 9.765-2.1 2.752-3.305 5.31-3.305 8.253h3c0-2.023.794-3.948 2.69-6.434 1.923-2.52 4.835-5.436 8.861-9.463l-2.12-2.121Zm2.121 33.915c-4.026-4.027-6.938-6.943-8.86-9.463-1.897-2.486-2.691-4.41-2.691-6.434h-3c0 2.943 1.205 5.5 3.305 8.254 2.074 2.718 5.158 5.797 9.125 9.764l2.121-2.121Z" fill="#4891FF"/>
    <path opacity=".5" d="M38.842 24.713a1.5 1.5 0 1 0-2.12-2.121l2.12 2.121ZM22.59 36.723a1.5 1.5 0 0 0 2.121 2.122l-2.121-2.122ZM36.72 22.592 22.59 36.723l2.121 2.122 14.131-14.132-2.12-2.121Zm32.502 40.277a4.495 4.495 0 0 1 0 6.357l2.122 2.122a7.495 7.495 0 0 0 0-10.6l-2.122 2.12Zm0 6.357a4.495 4.495 0 0 1-6.357 0l-2.121 2.122a7.495 7.495 0 0 0 10.6 0l-2.122-2.122Zm-6.357 0a4.495 4.495 0 0 1 0-6.357l-2.121-2.121a7.495 7.495 0 0 0 0 10.6l2.121-2.122Zm0-6.357a4.495 4.495 0 0 1 6.357 0l2.122-2.121a7.496 7.496 0 0 0-10.6 0l2.121 2.12Z" fill="#4891FF"/>
    <path opacity=".5" d="m85.916 29.608 6.25 4.225c0-12.56-9.01-22.988-20.833-25" stroke="#4891FF" stroke-width="3" stroke-linecap="round" stroke-linejoin="round"/>
    <path d="m15.084 71.392-6.25-4.225c0 12.56 9.01 22.988 20.833 25" stroke="#4891FF" stroke-width="3" stroke-linecap="round" stroke-linejoin="round"/>
</symbol>
</svg>
