<?xml version="1.0" encoding="utf-8"?>
<svg xmlns="http://www.w3.org/2000/svg" xmlns:xlink="http://www.w3.org/1999/xlink">
    <symbol fill="none" viewBox="0 0 24 24" id="svg-main" xmlns="http://www.w3.org/2000/svg">
        <path d="M7.843 3.802C9.872 2.601 10.886 2 12 2c1.114 0 2.128.6 4.157 1.802l.686.406c2.029 1.202 3.043 1.803 3.6 2.792.557.99.557 2.19.557 4.594v.812c0 2.403 0 3.605-.557 4.594-.557.99-1.571 1.59-3.6 2.791l-.686.407C14.128 21.399 13.114 22 12 22c-1.114 0-2.128-.6-4.157-1.802l-.686-.407c-2.029-1.2-3.043-1.802-3.6-2.791C3 16.01 3 14.81 3 12.406v-.812C3 9.19 3 7.989 3.557 7c.557-.99 1.571-1.59 3.6-2.792l.686-.406Z" stroke="#4891FF" stroke-width="1.5"/>
        <circle opacity=".5" cx="12" cy="12" r="3" stroke="#4891FF" stroke-width="1.5"/>
    </symbol><symbol fill="none" viewBox="0 0 24 24" id="svg-tradeIn" xmlns="http://www.w3.org/2000/svg">
    <path d="M13 2.8c3.114.01 4.765.108 5.828 1.172C20 5.143 20 7.029 20 10.8v4c0 3.771 0 5.657-1.172 6.828C17.657 22.8 15.771 22.8 12 22.8c-3.771 0-5.657 0-6.828-1.172C4 20.457 4 18.571 4 14.8v-3" stroke="#4891FF" stroke-width="1.5" stroke-linecap="round"/>
    <path opacity=".5" d="M2.73 4.8h-.75.75Zm0 .8-.554.506a.75.75 0 0 0 1.108 0L2.73 5.6Zm1.284-.294a.75.75 0 1 0-1.108-1.012l1.108 1.012Zm-1.46-1.012a.75.75 0 0 0-1.108 1.012l1.108-1.012ZM10.27 4l.554-.506a.75.75 0 0 0-1.108 0L10.27 4Zm-1.284.294a.75.75 0 0 0 1.108 1.012L8.986 4.294Zm1.46 1.012a.75.75 0 0 0 1.108-1.012l-1.108 1.012Zm-5.87 1.8A.75.75 0 1 0 3.461 8.11l1.115-1.003ZM8.54 2.631a.75.75 0 0 0 1.17-.939l-1.17.939ZM6.38.05c-2.494 0-4.4 2.193-4.4 4.75h1.5c0-1.86 1.36-3.25 2.9-3.25V.05Zm-4.4 4.75v.8h1.5v-.8h-1.5Zm1.303 1.306.73-.8-1.108-1.012-.73.8 1.108 1.012Zm0-1.012-.73-.8-1.108 1.012.73.8 1.108-1.012ZM6.62 9.55c2.494 0 4.4-2.193 4.4-4.75h-1.5c0 1.86-1.36 3.25-2.9 3.25v1.5Zm4.4-4.75V4h-1.5v.8h1.5ZM9.717 3.494l-.73.8 1.108 1.012.73-.8-1.108-1.012Zm0 1.012.73.8 1.108-1.012-.73-.8-1.108 1.012ZM3.46 8.109c.79.879 1.908 1.441 3.158 1.441v-1.5c-.785 0-1.509-.35-2.043-.944L3.461 8.11ZM9.71 1.692C8.914.7 7.726.05 6.381.05v1.5c.843 0 1.617.404 2.159 1.08l1.17-.938Z" fill="#4891FF"/>
    <path opacity=".5" d="M15 19.8H9" stroke="#4891FF" stroke-width="1.5" stroke-linecap="round"/>
</symbol><symbol fill="none" viewBox="0 0 24 24" id="svg-manHello" xmlns="http://www.w3.org/2000/svg">
    <path d="m20 21.5-.65-5.52C19.15 14.28 17.71 13 16 13H8c-3 0-4.933-2.731-5.618-5.472L2 6" stroke="#4891FF" stroke-width="1.5" stroke-linecap="round" stroke-linejoin="round"/>
    <path opacity=".5" d="M8 13v5c0 1.886 0 2.828.586 3.414C9.172 22 10.114 22 12 22c1.886 0 2.828 0 3.414-.586C16 20.828 16 19.886 16 18v-5" stroke="#4891FF" stroke-width="1.5" stroke-linecap="round"/>
    <circle opacity=".9" cx="12" cy="6" r="4" stroke="#4891FF" stroke-width="1.5"/>
</symbol><symbol fill="none" viewBox="0 0 24 24" id="svg-guard" xmlns="http://www.w3.org/2000/svg">
    <path d="M3 10.417c0-3.198 0-4.797.378-5.335.377-.537 1.88-1.052 4.887-2.081l.573-.196C10.405 2.268 11.188 2 12 2c.811 0 1.595.268 3.162.805l.573.196c3.007 1.029 4.51 1.544 4.887 2.081C21 5.62 21 7.22 21 10.417v1.574c0 5.638-4.239 8.375-6.899 9.536C13.38 21.842 13.02 22 12 22c-1.02 0-1.38-.158-2.101-.473C7.239 20.365 3 17.63 3 11.991v-1.574Z" stroke="#4891FF" stroke-width="1.5"/>
    <path opacity=".5" d="m9.5 12.4 1.429 1.6 3.571-4" stroke="#4891FF" stroke-width="1.5" stroke-linecap="round" stroke-linejoin="round"/>
</symbol><symbol fill="none" viewBox="0 0 24 24" id="delivery" xmlns="http://www.w3.org/2000/svg">
    <path d="M7.506 15.265a.75.75 0 0 0 1.446-.4l-1.446.4Zm-1.43-7.99.724-.2-.723.2ZM4.705 5.92l-.2.723.2-.723ZM3.2 4.725a.75.75 0 1 0-.402 1.445l.402-1.445Zm16.988 11a.75.75 0 0 0-.378-1.451l.378 1.452Zm-9.991 1.834c.31 1.12-.37 2.303-1.574 2.616L9 21.627c1.977-.514 3.185-2.503 2.643-4.467l-1.446.399Zm-1.574 2.616c-1.212.315-2.428-.389-2.74-1.519l-1.446.4c.54 1.955 2.594 3.082 4.563 2.57l-.377-1.451Zm-2.74-1.519c-.31-1.12.37-2.303 1.574-2.616L7.08 14.59c-1.977.513-3.186 2.502-2.643 4.467l1.446-.4Zm1.574-2.616c1.212-.314 2.428.389 2.74 1.519l1.446-.4c-.54-1.954-2.594-3.082-4.563-2.57l.377 1.451Zm1.494-1.175L6.8 7.075l-1.446.4 2.152 7.79 1.446-.4ZM4.904 5.197l-1.703-.472-.402 1.445 1.704.473.401-1.446ZM6.8 7.075a2.707 2.707 0 0 0-1.896-1.878l-.4 1.446c.425.118.742.44.85.831l1.446-.4Zm4.31 11.01 9.079-2.36-.378-1.451-9.079 2.36.377 1.451Z" fill="#4891FF"/>
    <path opacity=".5" d="M9.565 8.73c-.485-1.755-.727-2.633-.315-3.324.411-.692 1.316-.927 3.126-1.398l1.92-.498c1.81-.47 2.715-.706 3.428-.307.713.4.956 1.277 1.44 3.033l.515 1.862c.485 1.755.728 2.633.316 3.325-.412.691-1.317.927-3.127 1.397l-1.92.499c-1.81.47-2.715.705-3.428.306-.713-.4-.955-1.277-1.44-3.032L9.565 8.73Z" stroke="#4891FF" stroke-width="1.5"/>
</symbol><symbol fill="none" viewBox="0 0 24 24" id="svg-handPay" xmlns="http://www.w3.org/2000/svg">
    <path d="M17.414 10.414C18 9.828 18 8.886 18 7c0-1.886 0-2.828-.586-3.414m0 6.828C16.828 11 15.886 11 14 11h-4c-1.886 0-2.828 0-3.414-.586m10.828 0Zm0-6.828C16.828 3 15.886 3 14 3h-4c-1.886 0-2.828 0-3.414.586m10.828 0Zm-10.828 0C6 4.172 6 5.114 6 7c0 1.886 0 2.828.586 3.414m0-6.828Zm0 6.828Z" stroke="#4891FF" stroke-width="1.5"/>
    <path opacity=".5" d="M13 7a1 1 0 1 1-2 0 1 1 0 0 1 2 0Z" stroke="#4891FF" stroke-width="1.5"/>
    <path opacity=".5" d="M18 6a3 3 0 0 1-3-3M18 8a3 3 0 0 0-3 3M6 6a3 3 0 0 0 3-3M6 8a3 3 0 0 1 3 3M4 21.388h2.26c1.01 0 2.033.106 3.016.308 1.74.359 3.573.402 5.33.118.868-.14 1.72-.355 2.492-.727.696-.337 1.549-.81 2.122-1.341.572-.53 1.168-1.397 1.59-2.075.364-.582.188-1.295-.386-1.728a1.887 1.887 0 0 0-2.22 0l-1.807 1.365c-.7.53-1.465 1.017-2.376 1.162-.11.017-.225.033-.345.047m0 0a8.176 8.176 0 0 1-.11.012m.11-.012a.998.998 0 0 0 .427-.24 1.492 1.492 0 0 0 .126-2.134 1.9 1.9 0 0 0-.45-.367c-2.797-1.669-7.15-.398-9.779 1.467m9.676 1.274a.524.524 0 0 1-.11.012m0 0a9.274 9.274 0 0 1-1.814.004" stroke="#4891FF" stroke-width="1.5" stroke-linecap="round"/>
</symbol><symbol fill="none" viewBox="0 0 24 24" id="svg-hot" xmlns="http://www.w3.org/2000/svg">
    <path d="M20 13.111C20 20.222 13.956 22 10.933 22 8.29 22 3 20.222 3 13.111c0-2.782 1.461-4.65 2.86-5.716.778-.594 1.77-.003 1.87.971l.086.838c.105 1.02 1.033 1.857 1.893 1.298C11.394 9.407 12 6.775 12 5.333V5.01c0-1.43 1.444-2.35 2.602-1.512C17.165 5.35 20 8.584 20 13.11Z" stroke="#4891FF" stroke-width="1.5"/>
    <path opacity=".5" d="M8 18.445C8 21.289 10.489 22 11.733 22c1.09 0 3.267-.711 3.267-3.555 0-1.102-.59-1.845-1.16-2.274-.398-.299-.957-.03-1.094.449-.178.624-.823 1.016-1.152.456-.3-.512-.3-1.28-.3-1.743 0-.636-.64-1.048-1.155-.674C9.106 15.409 8 16.68 8 18.445Z" stroke="#4891FF" stroke-width="1.5"/>
</symbol><symbol fill="none" viewBox="0 0 24 24" id="svg-like-hand" xmlns="http://www.w3.org/2000/svg">
    <path d="m20.975 12.185-.74-.128.74.128Zm-.706 4.08-.739-.128.74.128ZM6.938 20.477l-.748.065.748-.065Zm-.813-9.393.748-.064-.748.064Zm7.87-5.863.74.122-.74-.122Zm-.663 4.045.74.121-.74-.121Zm-6.634.411-.49-.568.49.568Zm1.439-1.24.49.569-.49-.568Zm2.38-3.653-.725-.189.726.189Zm.476-1.834.726.188-.726-.188Zm1.674-.886-.229.714.23-.714Zm.145.047.23-.714-.23.714Zm-2.95 4.352.661.353-.661-.353Zm4.042-3.215-.726.188.726-.188Zm-2.23-1.116-.326-.675.326.675Zm8.562 9.925-.706 4.08 1.478.256.706-4.08-1.478-.256Zm-6.991 9.193H8.596v1.5h4.649v-1.5Zm-5.56-.837-.812-9.393-1.495.129.812 9.393 1.495-.13Zm11.845-4.276c-.507 2.93-3.149 5.113-6.285 5.113v1.5c3.826 0 7.126-2.669 7.763-6.357l-1.478-.256ZM13.255 5.1l-.663 4.045 1.48.242.663-4.044-1.48-.243Zm-6.068 5.146 1.44-1.24-.98-1.136-1.439 1.24.98 1.136Zm4.057-5.274.476-1.834-1.453-.376-.475 1.833 1.452.377Zm1.194-2.194.145.047.459-1.428-.145-.047-.459 1.428Zm-1.915 4.038a8.379 8.379 0 0 0 .72-1.844l-1.451-.377A6.879 6.879 0 0 1 9.2 6.11l1.323.707Zm2.06-3.991a.885.885 0 0 1 .595.61l1.452-.376a2.385 2.385 0 0 0-1.588-1.662l-.46 1.428Zm-.864.313a.514.514 0 0 1 .28-.33l-.65-1.351c-.533.256-.932.73-1.082 1.305l1.453.376Zm.28-.33a.596.596 0 0 1 .439-.03l.459-1.428a2.096 2.096 0 0 0-1.549.107L12 2.808Zm2.154 8.176h5.181v-1.5h-5.18v1.5Zm.582-5.641a5.531 5.531 0 0 0-.105-2.284l-1.452.377c.141.543.167 1.11.077 1.664l1.48.243ZM8.596 21.25a.915.915 0 0 1-.911-.837l-1.495.129a2.416 2.416 0 0 0 2.406 2.208v-1.5Zm.03-12.244c.68-.586 1.413-1.283 1.897-2.19L9.2 6.109c-.346.649-.898 1.196-1.553 1.76l.98 1.137Zm13.088 3.307a2.416 2.416 0 0 0-2.38-2.829v1.5c.567 0 .999.512.902 1.073l1.478.256Zm-9.122-3.168a1.583 1.583 0 0 0 1.561 1.84v-1.5a.083.083 0 0 1-.08-.098l-1.481-.242Zm-5.72 1.875a.918.918 0 0 1 .315-.774l-.979-1.137a2.418 2.418 0 0 0-.83 2.04l1.495-.13Z" fill="#4891FF"/>
    <path opacity=".5" d="m3.972 21.47-.748.066.748-.065ZM3 10.235l.747-.064a.75.75 0 0 0-1.497.064H3Zm1.719 11.172L3.747 10.17l-1.494.129.971 11.236 1.495-.129Zm-.969.107V10.234h-1.5v11.279h1.5Zm-.526.022a.263.263 0 0 1 .263-.285v1.5c.726 0 1.294-.622 1.232-1.344l-1.495.13Zm.263-.285c.146 0 .263.119.263.263h-1.5c0 .682.553 1.237 1.237 1.237v-1.5Z" fill="#4891FF"/>
</symbol><symbol fill="none" viewBox="0 0 24 24" id="svg-addres-book" xmlns="http://www.w3.org/2000/svg">
    <path d="m20.082 3.018.026.75-.026-.75Zm-3.582.47-.215-.719.215.719Zm-2.826 1.315-.376-.65.376.65ZM3.982 3.075l-.046.749.046-.749ZM7 3.488l.191-.726L7 3.488Zm3.282 1.388-.35.663.35-.663Zm3.346 15.193.352.662-.352-.662ZM17 18.634l-.191-.726.191.726Zm2.985-.411.047.748-.047-.748Zm-9.613 1.846-.352.662.352-.662ZM7 18.634l.191-.726-.191.726Zm-2.985-.411-.047.748.047-.748Zm-1.265-2.08V4.999h-1.5v11.146h1.5Zm20 0V4.934h-1.5v11.21h1.5ZM20.056 2.269c-1.139.04-2.626.158-3.771.501l.43 1.437c.95-.284 2.274-.4 3.393-.439l-.052-1.499Zm-3.771.501c-.995.298-2.114.88-2.987 1.385l.752 1.298c.85-.492 1.845-1 2.665-1.246l-.43-1.437ZM3.936 3.824c.966.059 2.06.174 2.873.389l.382-1.45c-.96-.254-2.176-.376-3.163-.437l-.092 1.498Zm2.873.389c.962.254 2.146.81 3.123 1.326l.7-1.326c-.995-.527-2.304-1.15-3.44-1.45l-.383 1.45ZM13.98 20.73c.991-.528 2.219-1.11 3.211-1.372l-.382-1.45c-1.17.308-2.526.961-3.534 1.498l.705 1.324Zm3.211-1.372c.803-.212 1.882-.328 2.841-.388l-.094-1.497c-.98.062-2.179.183-3.13.434l.383 1.45Zm-6.466.048c-1.008-.537-2.363-1.19-3.534-1.499l-.382 1.45c.992.263 2.22.845 3.21 1.373l.706-1.324Zm-3.534-1.499c-.95-.25-2.15-.372-3.13-.434l-.093 1.497c.959.06 2.038.176 2.84.388l.383-1.45Zm14.059-1.764c0 .686-.568 1.284-1.312 1.33l.094 1.497c1.474-.092 2.718-1.291 2.718-2.827h-1.5Zm1.5-11.21c0-1.464-1.165-2.719-2.694-2.666l.052 1.5c.615-.022 1.142.484 1.142 1.165h1.5Zm-21.5 11.21c0 1.536 1.244 2.735 2.718 2.828l.094-1.498c-.744-.046-1.312-.645-1.312-1.33h-1.5Zm12.025 3.264a2.723 2.723 0 0 1-2.55 0l-.705 1.323a4.224 4.224 0 0 0 3.96 0l-.705-1.324Zm.023-15.254a2.77 2.77 0 0 1-2.665.059l-.701 1.326a4.27 4.27 0 0 0 4.117-.087l-.75-1.298ZM2.75 4.998c0-.697.552-1.213 1.186-1.174l.092-1.498C2.47 2.231 1.25 3.5 1.25 4.998h1.5Z" fill="#4891FF"/>
    <path opacity=".5" d="M12 5.854V21" stroke="#4891FF" stroke-width="1.5"/>
    <path opacity=".5" d="m5 9 4 1M5 13l4 1M19 13l-4 1" stroke="#4891FF" stroke-width="1.5" stroke-linecap="round"/>
    <path d="M19 5.5v4.01c0 .276 0 .414-.095.47-.095.055-.224-.007-.484-.13l-1.242-.59c-.088-.042-.132-.062-.179-.062-.047 0-.091.02-.179.062l-1.242.59c-.26.123-.39.185-.484.13C15 9.923 15 9.785 15 9.51V6.95" stroke="#4891FF" stroke-width="1.5" stroke-linecap="round"/>
</symbol><symbol fill="none" viewBox="0 0 33 32" id="svg-menu" xmlns="http://www.w3.org/2000/svg">
    <path opacity=".5" d="M3.833 8.667c0-2.514 0-3.772.781-4.553.781-.78 2.038-.78 4.552-.78s3.772 0 4.553.78c.78.781.78 2.039.78 4.553s0 3.77-.78 4.552C12.938 14 11.68 14 9.166 14c-2.514 0-3.77 0-4.552-.781-.781-.781-.781-2.038-.781-4.552ZM18.5 23.333c0-2.514 0-3.77.781-4.552C20.062 18 21.319 18 23.833 18c2.515 0 3.772 0 4.553.781.78.781.78 2.038.78 4.552 0 2.515 0 3.772-.78 4.553-.781.78-2.038.78-4.553.78-2.514 0-3.77 0-4.552-.78-.781-.781-.781-2.038-.781-4.553Z" stroke="#4891FF" stroke-width="1.5"/>
    <path d="M3.833 23.333c0-2.514 0-3.77.781-4.552C5.395 18 6.652 18 9.166 18s3.772 0 4.553.781c.78.781.78 2.038.78 4.552 0 2.515 0 3.772-.78 4.553-.781.78-2.038.78-4.553.78-2.514 0-3.77 0-4.552-.78-.781-.781-.781-2.038-.781-4.553ZM18.5 8.667c0-2.514 0-3.772.781-4.553.781-.78 2.038-.78 4.552-.78 2.515 0 3.772 0 4.553.78.78.781.78 2.039.78 4.553s0 3.77-.78 4.552c-.781.781-2.038.781-4.553.781-2.514 0-3.77 0-4.552-.781-.781-.781-.781-2.038-.781-4.552Z" stroke="#4891FF" stroke-width="1.5"/>
</symbol><symbol fill="none" viewBox="0 0 32 32" id="svg-bagStore" xmlns="http://www.w3.org/2000/svg">
    <path opacity=".5" d="m16 16.255-.519.542a.75.75 0 0 0 1.038 0L16 16.255Zm-.964 5.122-.43.615.43-.615Zm.964.454v-.75.75Zm-.535-1.069c-.572-.4-1.281-.95-1.84-1.556-.585-.635-.875-1.192-.875-1.61h-1.5c0 1.014.636 1.935 1.273 2.626.663.72 1.472 1.343 2.084 1.77l.858-1.23Zm-2.715-3.166c0-.855.4-1.297.823-1.446.444-.155 1.158-.072 1.908.647l1.038-1.084c-1.05-1.004-2.336-1.366-3.442-.978-1.127.395-1.827 1.485-1.827 2.86h1.5Zm4.643 4.396c.612-.427 1.42-1.05 2.084-1.77.637-.69 1.273-1.612 1.273-2.627h-1.5c0 .42-.29.976-.876 1.61-.558.607-1.267 1.158-1.84 1.557l.86 1.23Zm3.357-4.396c0-1.377-.7-2.466-1.827-2.861-1.106-.388-2.392-.026-3.442.978l1.038 1.084c.75-.719 1.464-.803 1.908-.647.423.149.823.59.823 1.446h1.5Zm-6.143 4.396c.376.263.796.589 1.393.589v-1.5c-.016 0-.033.001-.096-.031a4.432 4.432 0 0 1-.439-.288l-.858 1.23Zm1.928-1.23c-.232.162-.348.24-.44.288-.063.032-.079.03-.095.03v1.5c.597 0 1.017-.325 1.393-.588l-.858-1.23Z" fill="#4891FF"/>
    <path opacity=".5" d="M12 8V6.667a4 4 0 0 1 8 0V8" stroke="#4891FF" stroke-width="1.5" stroke-linecap="round"/>
    <path d="M4.988 27.406c1.6 1.927 4.577 1.927 10.53 1.927h.962c5.954 0 8.931 0 10.53-1.927m-22.022 0c-1.6-1.927-1.05-4.853.047-10.705.78-4.162 1.17-6.242 2.651-7.472M4.988 27.406Zm22.023 0c1.6-1.927 1.05-4.853-.047-10.705-.78-4.162-1.17-6.242-2.651-7.472m2.698 18.177ZM24.313 9.23C22.83 8 20.714 8 16.48 8h-.961c-4.234 0-6.351 0-7.833 1.23m16.627 0Zm-16.627 0Z" stroke="#4891FF" stroke-width="1.5"/>
</symbol><symbol fill="none" viewBox="0 0 33 32" id="svg-tools" xmlns="http://www.w3.org/2000/svg">
    <path d="M25.5 15.582c-1.102.195-2 .757-2 1.918v11c0 1.473 1.527 2 3 2s3-.527 3-2v-11c0-1.16-.898-1.723-2-1.918m-2 0V5.5c0-.5-.5-1-.5-2s1-2 1.5-2 1.5 1 1.5 2-.5 1.5-.5 2v10.082m-2 0c.39-.032.5-.082 1-.082s.61.05 1 .082" stroke="#4891FF" stroke-width="1.5"/>
    <path opacity=".5" d="M26.5 18v10" stroke="#4891FF" stroke-width="1.5" stroke-linecap="round"/>
    <path d="M2.5 9.5c0-3.771 0-5.657 1.172-6.828C4.843 1.5 6.729 1.5 10.5 1.5c3.771 0 5.657 0 6.828 1.172C18.5 3.843 18.5 5.729 18.5 9.5v13c0 3.771 0 5.657-1.172 6.828C16.157 30.5 14.271 30.5 10.5 30.5c-3.771 0-5.657 0-6.828-1.172C2.5 28.157 2.5 26.271 2.5 22.5v-13Z" stroke="#4891FF" stroke-width="1.5"/>
    <path opacity=".5" d="M13.5 28h-6m1-24.5h4" stroke="#4891FF" stroke-width="1.5" stroke-linecap="round"/>
</symbol><symbol fill="none" viewBox="0 0 33 32" id="svg-tools-black" xmlns="http://www.w3.org/2000/svg">
    <path d="M25.5 15.582c-1.102.195-2 .757-2 1.918v11c0 1.473 1.527 2 3 2s3-.527 3-2v-11c0-1.16-.898-1.723-2-1.918m-2 0V5.5c0-.5-.5-1-.5-2s1-2 1.5-2 1.5 1 1.5 2-.5 1.5-.5 2v10.082m-2 0c.39-.032.5-.082 1-.082s.61.05 1 .082" stroke="#142340" stroke-width="1.5"/>
    <path opacity=".5" d="M26.5 18v10" stroke="#142340" stroke-width="1.5" stroke-linecap="round"/>
    <path d="M2.5 9.5c0-3.771 0-5.657 1.172-6.828C4.843 1.5 6.729 1.5 10.5 1.5c3.771 0 5.657 0 6.828 1.172C18.5 3.843 18.5 5.729 18.5 9.5v13c0 3.771 0 5.657-1.172 6.828C16.157 30.5 14.271 30.5 10.5 30.5c-3.771 0-5.657 0-6.828-1.172C2.5 28.157 2.5 26.271 2.5 22.5v-13Z" stroke="#142340" stroke-width="1.5"/>
    <path opacity=".5" d="M13.5 28h-6m1-24.5h4" stroke="#142340" stroke-width="1.5" stroke-linecap="round"/>
</symbol><symbol fill="none" viewBox="0 0 33 32" id="svg-menu-black" xmlns="http://www.w3.org/2000/svg">
    <path opacity=".5" d="M3.833 8.667c0-2.514 0-3.772.781-4.553.781-.78 2.038-.78 4.552-.78s3.772 0 4.553.78c.78.781.78 2.039.78 4.553s0 3.77-.78 4.552C12.938 14 11.68 14 9.166 14c-2.514 0-3.77 0-4.552-.781-.781-.781-.781-2.038-.781-4.552ZM18.5 23.333c0-2.514 0-3.77.781-4.552C20.062 18 21.319 18 23.833 18c2.515 0 3.772 0 4.553.781.78.781.78 2.038.78 4.552 0 2.515 0 3.772-.78 4.553-.781.78-2.038.78-4.553.78-2.514 0-3.77 0-4.552-.78-.781-.781-.781-2.038-.781-4.553Z" stroke="#142340" stroke-width="1.5"/>
    <path d="M3.833 23.333c0-2.514 0-3.77.781-4.552C5.395 18 6.652 18 9.166 18s3.772 0 4.553.781c.78.781.78 2.038.78 4.552 0 2.515 0 3.772-.78 4.553-.781.78-2.038.78-4.553.78-2.514 0-3.77 0-4.552-.78-.781-.781-.781-2.038-.781-4.553ZM18.5 8.667c0-2.514 0-3.772.781-4.553.781-.78 2.038-.78 4.552-.78 2.515 0 3.772 0 4.553.78.78.781.78 2.039.78 4.553s0 3.77-.78 4.552c-.781.781-2.038.781-4.553.781-2.514 0-3.77 0-4.552-.781-.781-.781-.781-2.038-.781-4.552Z" stroke="#142340" stroke-width="1.5"/>
</symbol><symbol fill="none" viewBox="0 0 32 32" id="svg-bagStore-black" xmlns="http://www.w3.org/2000/svg">
    <path opacity=".5" d="m16 16.255-.519.542a.75.75 0 0 0 1.038 0L16 16.255Zm-.964 5.122-.43.615.43-.615Zm.964.454v-.75.75Zm-.535-1.069c-.572-.399-1.281-.95-1.84-1.556-.585-.635-.875-1.192-.875-1.61h-1.5c0 1.014.636 1.935 1.273 2.626.663.72 1.472 1.343 2.084 1.77l.858-1.23Zm-2.715-3.166c0-.855.4-1.297.823-1.446.444-.155 1.158-.072 1.908.647l1.038-1.084c-1.05-1.004-2.336-1.366-3.442-.978-1.127.395-1.827 1.485-1.827 2.86h1.5Zm4.643 4.396c.612-.427 1.42-1.05 2.084-1.77.637-.69 1.273-1.612 1.273-2.626h-1.5c0 .418-.29.975-.876 1.61-.558.606-1.267 1.157-1.84 1.556l.86 1.23Zm3.357-4.396c0-1.376-.7-2.466-1.827-2.861-1.106-.388-2.392-.026-3.442.978l1.038 1.084c.75-.719 1.464-.802 1.908-.647.423.149.823.59.823 1.446h1.5Zm-6.143 4.396c.376.263.796.589 1.393.589v-1.5c-.016 0-.033.001-.096-.031a4.42 4.42 0 0 1-.439-.288l-.858 1.23Zm1.928-1.23a4.42 4.42 0 0 1-.44.288c-.063.032-.079.03-.095.03v1.5c.597 0 1.017-.325 1.393-.588l-.858-1.23Z" fill="#142340"/>
    <path opacity=".5" d="M12 8V6.667a4 4 0 0 1 8 0V8" stroke="#142340" stroke-width="1.5" stroke-linecap="round"/>
    <path d="M4.988 27.406c1.6 1.927 4.577 1.927 10.53 1.927h.962c5.954 0 8.931 0 10.53-1.927m-22.022 0c-1.6-1.927-1.05-4.853.047-10.705.78-4.162 1.17-6.242 2.651-7.472M4.988 27.406Zm22.023 0c1.6-1.927 1.05-4.853-.047-10.705-.78-4.162-1.17-6.242-2.651-7.472m2.698 18.177ZM24.313 9.23C22.83 8 20.714 8 16.48 8h-.961c-4.234 0-6.351 0-7.833 1.23m16.627 0Zm-16.627 0Z" stroke="#142340" stroke-width="1.5"/>
</symbol><symbol fill="none" viewBox="0 0 16 16" id="svg-arrow-blue" xmlns="http://www.w3.org/2000/svg">
    <path d="m13 6-4.667 4-4.666-4" stroke="#4891FF" stroke-width="1.25" stroke-linecap="round" stroke-linejoin="round"/>
</symbol><symbol fill="none" viewBox="0 0 24 24" id="svg-iphone" xmlns="http://www.w3.org/2000/svg">
    <path d="M4 10c0-3.771 0-5.657 1.172-6.828C6.343 2 8.229 2 12 2c3.771 0 5.657 0 6.828 1.172C20 4.343 20 6.229 20 10v4c0 3.771 0 5.657-1.172 6.828C17.657 22 15.771 22 12 22c-3.771 0-5.657 0-6.828-1.172C4 19.657 4 17.771 4 14v-4Z" stroke="#4891FF" stroke-width="1.5"/>
    <path opacity=".5" d="M15 19H9" stroke="#4891FF" stroke-width="1.5" stroke-linecap="round"/>
</symbol><symbol fill="none" viewBox="0 0 24 24" id="svg-ipad" xmlns="http://www.w3.org/2000/svg">
    <path d="M10 20c-3.771 0-5.657 0-6.828-1.172C2 17.657 2 15.771 2 12c0-3.771 0-5.657 1.172-6.828C4.343 4 6.229 4 10 4h4c3.771 0 5.657 0 6.828 1.172C22 6.343 22 8.229 22 12c0 3.771 0 5.657-1.172 6.828C19.657 20 17.771 20 14 20h-4Z" stroke="#4891FF" stroke-width="1.5"/>
    <path opacity=".5" d="M15 17H9" stroke="#4891FF" stroke-width="1.5" stroke-linecap="round"/>
</symbol><symbol fill="none" viewBox="0 0 24 24" id="svg-mac" xmlns="http://www.w3.org/2000/svg">
    <path d="M19.647 15.536H4.353m15.294 0V8c0-1.886 0-2.828-.586-3.414C18.476 4 17.533 4 15.647 4H8.353c-1.886 0-2.828 0-3.414.586-.586.586-.586 1.528-.586 3.414v7.536m15.294 0 1.744 1.8.088.092a2 2 0 0 1 .52 1.284l.001.127c0 .15 0 .224-.004.287a2 2 0 0 1-1.87 1.87 5.006 5.006 0 0 1-.287.004H4.161c-.15 0-.224 0-.287-.004a2 2 0 0 1-1.87-1.87C2 19.063 2 18.988 2 18.84l.001-.127a2 2 0 0 1 .52-1.284l.088-.092 1.744-1.8" stroke="#4891FF" stroke-width="1.5" stroke-linecap="round"/>
    <path opacity=".5" d="M9.5 18.5h5" stroke="#4891FF" stroke-width="1.5" stroke-linecap="round"/>
    <path opacity=".5" d="M12.75 6.75a.75.75 0 1 1-1.5 0 .75.75 0 0 1 1.5 0Z" fill="#4891FF"/>
</symbol><symbol fill="none" viewBox="0 0 24 24" id="svg-imac" xmlns="http://www.w3.org/2000/svg">
    <path d="M2 10c0-3.771 0-5.657 1.172-6.828C4.343 2 6.229 2 10 2h4c3.771 0 5.657 0 6.828 1.172C22 4.343 22 6.229 22 10v1c0 2.828 0 4.243-.879 5.121C20.243 17 18.828 17 16 17H8c-2.828 0-4.243 0-5.121-.879C2 15.243 2 13.828 2 11v-1Z" stroke="#4891FF" stroke-width="1.5"/>
    <path d="M16 22H8M12 17v5" stroke="#4891FF" stroke-width="1.5" stroke-linecap="round"/>
    <path opacity=".5" d="M22 13H2" stroke="#4891FF" stroke-width="1.5" stroke-linecap="round"/>
</symbol><symbol fill="none" viewBox="0 0 24 24" id="svg-iwatch" xmlns="http://www.w3.org/2000/svg">
    <path d="M5 12c0-2.809 0-4.213.674-5.222a4 4 0 0 1 1.104-1.104C7.787 5 9.19 5 12 5c2.809 0 4.213 0 5.222.674.437.292.812.667 1.104 1.104C19 7.787 19 9.19 19 12c0 2.809 0 4.213-.674 5.222a4.003 4.003 0 0 1-1.104 1.104C16.213 19 14.81 19 12 19c-2.809 0-4.213 0-5.222-.674a4.002 4.002 0 0 1-1.104-1.104C5 16.213 5 14.81 5 12Z" stroke="#4891FF" stroke-width="1.5"/>
    <path opacity=".5" d="M12 9v3.077L14 14" stroke="#4891FF" stroke-width="1.5" stroke-linecap="round" stroke-linejoin="round"/>
    <path d="m16.778 5.5-.081-.368c-.334-1.501-.501-2.252-1.05-2.692C15.1 2 14.33 2 12.793 2h-1.583c-1.538 0-2.307 0-2.856.44-.548.44-.715 1.19-1.049 2.692l-.081.368" stroke="#4891FF" stroke-width="1.5"/>
    <path d="m16.778 5.5-.081-.368c-.334-1.501-.501-2.252-1.05-2.692C15.1 2 14.33 2 12.793 2h-1.583c-1.538 0-2.307 0-2.856.44-.548.44-.715 1.19-1.049 2.692l-.081.368M16.778 18.5l-.081.368c-.334 1.501-.501 2.252-1.05 2.692-.548.44-1.317.44-2.855.44h-1.583c-1.538 0-2.307 0-2.856-.44-.548-.44-.715-1.19-1.049-2.692l-.081-.368" stroke="#4891FF" stroke-width="1.5"/>
</symbol><symbol fill="none" viewBox="0 0 24 24" id="svg-airPods" xmlns="http://www.w3.org/2000/svg">
    <path d="M3 12.833c0-.781 0-1.172.207-1.442.053-.07.115-.131.184-.184.27-.207.66-.207 1.442-.207h14.334c.781 0 1.172 0 1.442.207.07.053.131.115.184.184.207.27.207.66.207 1.442V13c0 3.75 0 5.625-.955 6.939a5 5 0 0 1-1.106 1.106C17.625 22 15.749 22 12 22c-3.75 0-5.625 0-6.939-.955a5 5 0 0 1-1.106-1.106C3 18.625 3 16.749 3 13v-.167ZM3.5 5.941V4.625A2.625 2.625 0 0 1 6.125 2 4.375 4.375 0 0 1 10.5 6.375V11H6.794V9.236a.824.824 0 0 0-.823-.824A2.47 2.47 0 0 1 3.5 5.942ZM20.5 5.941V4.625A2.625 2.625 0 0 0 17.875 2 4.375 4.375 0 0 0 13.5 6.375V11h3.706V9.236c0-.455.369-.824.823-.824a2.47 2.47 0 0 0 2.471-2.47Z" stroke="#4891FF" stroke-width="1.5"/>
    <path opacity=".5" d="M8 11a2 2 0 0 0 2 2h4a2 2 0 0 0 2-2" stroke="#4891FF" stroke-width="1.5"/>
</symbol><symbol fill="none" viewBox="0 0 20 20" id="svg-info" xmlns="http://www.w3.org/2000/svg">
    <g clip-path="url(#aa)">
        <circle opacity=".5" cx="10" cy="10" r="8.333" stroke="#4891FF" stroke-width="1.5"/>
        <path d="M10 14.167v-5" stroke="#4891FF" stroke-width="1.5" stroke-linecap="round"/>
        <circle cx=".833" cy=".833" r=".833" transform="matrix(1 0 0 -1 9.167 7.5)" fill="#4891FF"/>
    </g>
    <defs>
        <clipPath id="aa">
            <path fill="#fff" d="M0 0h20v20H0z"/>
        </clipPath>
    </defs>
</symbol>
</svg>
